<mxfile host="app.diagrams.net" agent="Mozilla/5.0 (Windows NT 10.0; Win64; x64) AppleWebKit/537.36 (KHTML, like Gecko) Chrome/128.0.0.0 Safari/537.36" version="24.7.14">
  <diagram name="Page-1" id="WoQ2T9PRDRB7FxEQhNFu">
    <mxGraphModel dx="1050" dy="557" grid="1" gridSize="10" guides="1" tooltips="1" connect="1" arrows="1" fold="1" page="1" pageScale="1" pageWidth="850" pageHeight="1100" math="0" shadow="0">
      <root>
        <mxCell id="0" />
        <mxCell id="1" parent="0" />
        <mxCell id="EW6i_yYcTUOvPH3DIX61-19" style="edgeStyle=orthogonalEdgeStyle;rounded=0;orthogonalLoop=1;jettySize=auto;html=1;" parent="1" target="EW6i_yYcTUOvPH3DIX61-5" edge="1">
          <mxGeometry relative="1" as="geometry">
            <mxPoint x="558.9994540615544" y="425" as="sourcePoint" />
          </mxGeometry>
        </mxCell>
        <mxCell id="EW6i_yYcTUOvPH3DIX61-1" value="" style="sketch=0;outlineConnect=0;fontColor=#232F3E;gradientColor=none;fillColor=#ED7100;strokeColor=none;dashed=0;verticalLabelPosition=bottom;verticalAlign=top;align=center;html=1;fontSize=12;fontStyle=0;aspect=fixed;pointerEvents=1;shape=mxgraph.aws4.lambda_function;" parent="1" vertex="1">
          <mxGeometry x="511" y="400" width="48" height="48" as="geometry" />
        </mxCell>
        <mxCell id="EW6i_yYcTUOvPH3DIX61-2" value="" style="sketch=0;outlineConnect=0;fontColor=#232F3E;gradientColor=none;fillColor=#ED7100;strokeColor=none;dashed=0;verticalLabelPosition=bottom;verticalAlign=top;align=center;html=1;fontSize=12;fontStyle=0;aspect=fixed;pointerEvents=1;shape=mxgraph.aws4.lambda_function;" parent="1" vertex="1">
          <mxGeometry x="511" y="494.5" width="48" height="48" as="geometry" />
        </mxCell>
        <mxCell id="EW6i_yYcTUOvPH3DIX61-3" value="" style="sketch=0;outlineConnect=0;fontColor=#232F3E;gradientColor=none;fillColor=#ED7100;strokeColor=none;dashed=0;verticalLabelPosition=bottom;verticalAlign=top;align=center;html=1;fontSize=12;fontStyle=0;aspect=fixed;pointerEvents=1;shape=mxgraph.aws4.lambda_function;" parent="1" vertex="1">
          <mxGeometry x="515" y="603.5" width="40" height="40" as="geometry" />
        </mxCell>
        <mxCell id="EW6i_yYcTUOvPH3DIX61-4" value="" style="outlineConnect=0;dashed=0;verticalLabelPosition=bottom;verticalAlign=top;align=center;html=1;shape=mxgraph.aws3.route_53;fillColor=#F58536;gradientColor=none;" parent="1" vertex="1">
          <mxGeometry x="230" y="180" width="70.5" height="85.5" as="geometry" />
        </mxCell>
        <mxCell id="EW6i_yYcTUOvPH3DIX61-21" style="edgeStyle=orthogonalEdgeStyle;rounded=0;orthogonalLoop=1;jettySize=auto;html=1;" parent="1" source="EW6i_yYcTUOvPH3DIX61-5" target="EW6i_yYcTUOvPH3DIX61-2" edge="1">
          <mxGeometry relative="1" as="geometry" />
        </mxCell>
        <mxCell id="EW6i_yYcTUOvPH3DIX61-5" value="Amazon DynamoDB" style="sketch=0;outlineConnect=0;fontColor=#232F3E;gradientColor=none;strokeColor=#ffffff;fillColor=#232F3E;dashed=0;verticalLabelPosition=middle;verticalAlign=bottom;align=center;html=1;whiteSpace=wrap;fontSize=10;fontStyle=1;spacing=3;shape=mxgraph.aws4.productIcon;prIcon=mxgraph.aws4.dynamodb;" parent="1" vertex="1">
          <mxGeometry x="691" y="463.5" width="80" height="110" as="geometry" />
        </mxCell>
        <mxCell id="EW6i_yYcTUOvPH3DIX61-6" value="" style="outlineConnect=0;dashed=0;verticalLabelPosition=bottom;verticalAlign=top;align=center;html=1;shape=mxgraph.aws3.api_gateway;fillColor=#D9A741;gradientColor=none;" parent="1" vertex="1">
          <mxGeometry x="340" y="463.5" width="76.5" height="93" as="geometry" />
        </mxCell>
        <mxCell id="EW6i_yYcTUOvPH3DIX61-34" style="edgeStyle=orthogonalEdgeStyle;rounded=0;orthogonalLoop=1;jettySize=auto;html=1;" parent="1" source="EW6i_yYcTUOvPH3DIX61-8" target="EW6i_yYcTUOvPH3DIX61-33" edge="1">
          <mxGeometry relative="1" as="geometry">
            <Array as="points">
              <mxPoint x="690" y="227" />
              <mxPoint x="690" y="227" />
            </Array>
          </mxGeometry>
        </mxCell>
        <mxCell id="EW6i_yYcTUOvPH3DIX61-8" value="" style="outlineConnect=0;dashed=0;verticalLabelPosition=bottom;verticalAlign=top;align=center;html=1;shape=mxgraph.aws3.cloudfront;fillColor=#F58536;gradientColor=none;" parent="1" vertex="1">
          <mxGeometry x="511" y="180" width="76.5" height="93" as="geometry" />
        </mxCell>
        <mxCell id="EW6i_yYcTUOvPH3DIX61-12" value="" style="endArrow=classic;html=1;rounded=0;" parent="1" source="EW6i_yYcTUOvPH3DIX61-6" edge="1">
          <mxGeometry relative="1" as="geometry">
            <mxPoint x="400" y="435.5" as="sourcePoint" />
            <mxPoint x="500" y="435.5" as="targetPoint" />
          </mxGeometry>
        </mxCell>
        <mxCell id="EW6i_yYcTUOvPH3DIX61-14" value="" style="endArrow=classic;html=1;rounded=0;" parent="1" source="EW6i_yYcTUOvPH3DIX61-6" target="EW6i_yYcTUOvPH3DIX61-2" edge="1">
          <mxGeometry relative="1" as="geometry">
            <mxPoint x="427" y="496.5" as="sourcePoint" />
            <mxPoint x="510" y="445.5" as="targetPoint" />
          </mxGeometry>
        </mxCell>
        <mxCell id="EW6i_yYcTUOvPH3DIX61-16" value="" style="endArrow=classic;html=1;rounded=0;" parent="1" source="EW6i_yYcTUOvPH3DIX61-6" target="EW6i_yYcTUOvPH3DIX61-3" edge="1">
          <mxGeometry relative="1" as="geometry">
            <mxPoint x="331" y="523.5" as="sourcePoint" />
            <mxPoint x="491" y="523.5" as="targetPoint" />
          </mxGeometry>
        </mxCell>
        <mxCell id="EW6i_yYcTUOvPH3DIX61-24" value="" style="endArrow=classic;html=1;rounded=0;" parent="1" source="EW6i_yYcTUOvPH3DIX61-5" edge="1">
          <mxGeometry width="50" height="50" relative="1" as="geometry">
            <mxPoint x="731" y="633.5" as="sourcePoint" />
            <mxPoint x="561" y="633.5" as="targetPoint" />
            <Array as="points">
              <mxPoint x="731" y="633.5" />
            </Array>
          </mxGeometry>
        </mxCell>
        <mxCell id="EW6i_yYcTUOvPH3DIX61-25" value="" style="endArrow=classic;html=1;rounded=0;" parent="1" target="EW6i_yYcTUOvPH3DIX61-4" edge="1">
          <mxGeometry relative="1" as="geometry">
            <mxPoint x="50" y="222.25" as="sourcePoint" />
            <mxPoint x="150" y="222.25" as="targetPoint" />
          </mxGeometry>
        </mxCell>
        <mxCell id="EW6i_yYcTUOvPH3DIX61-27" value="Request UrL: https://ahmedsamy.link" style="edgeLabel;html=1;align=center;verticalAlign=middle;resizable=0;points=[];" parent="EW6i_yYcTUOvPH3DIX61-25" vertex="1" connectable="0">
          <mxGeometry x="0.0128" y="-2" relative="1" as="geometry">
            <mxPoint x="-11" y="-14" as="offset" />
          </mxGeometry>
        </mxCell>
        <mxCell id="EW6i_yYcTUOvPH3DIX61-28" value="" style="endArrow=classic;html=1;rounded=0;" parent="1" target="EW6i_yYcTUOvPH3DIX61-8" edge="1">
          <mxGeometry relative="1" as="geometry">
            <mxPoint x="310" y="224.5" as="sourcePoint" />
            <mxPoint x="520" y="225" as="targetPoint" />
          </mxGeometry>
        </mxCell>
        <mxCell id="EW6i_yYcTUOvPH3DIX61-32" value="Redirect to cloud front url" style="text;html=1;align=center;verticalAlign=middle;resizable=0;points=[];autosize=1;strokeColor=none;fillColor=none;" parent="1" vertex="1">
          <mxGeometry x="310" y="190" width="160" height="30" as="geometry" />
        </mxCell>
        <mxCell id="EW6i_yYcTUOvPH3DIX61-33" value="" style="outlineConnect=0;dashed=0;verticalLabelPosition=bottom;verticalAlign=top;align=center;html=1;shape=mxgraph.aws3.s3;fillColor=#E05243;gradientColor=none;" parent="1" vertex="1">
          <mxGeometry x="760" y="176.25" width="76.5" height="93" as="geometry" />
        </mxCell>
        <mxCell id="EW6i_yYcTUOvPH3DIX61-35" value="Cash the html pages from s3" style="text;html=1;align=center;verticalAlign=middle;resizable=0;points=[];autosize=1;strokeColor=none;fillColor=none;" parent="1" vertex="1">
          <mxGeometry x="580" y="190" width="180" height="30" as="geometry" />
        </mxCell>
        <mxCell id="EW6i_yYcTUOvPH3DIX61-37" value="" style="endArrow=classic;html=1;rounded=0;" parent="1" source="EW6i_yYcTUOvPH3DIX61-33" target="EW6i_yYcTUOvPH3DIX61-4" edge="1">
          <mxGeometry width="50" height="50" relative="1" as="geometry">
            <mxPoint x="800" y="320" as="sourcePoint" />
            <mxPoint x="511" y="300" as="targetPoint" />
            <Array as="points">
              <mxPoint x="800" y="320" />
              <mxPoint x="265" y="320" />
            </Array>
          </mxGeometry>
        </mxCell>
        <mxCell id="EW6i_yYcTUOvPH3DIX61-38" value="On HTML pages, there is POST or GET request to https://api.ahmedsamy.link" style="text;html=1;align=center;verticalAlign=middle;resizable=0;points=[];autosize=1;strokeColor=none;fillColor=none;" parent="1" vertex="1">
          <mxGeometry x="280" y="288" width="440" height="30" as="geometry" />
        </mxCell>
        <mxCell id="EW6i_yYcTUOvPH3DIX61-39" value="" style="endArrow=classic;html=1;rounded=0;" parent="1" source="EW6i_yYcTUOvPH3DIX61-4" target="EW6i_yYcTUOvPH3DIX61-6" edge="1">
          <mxGeometry width="50" height="50" relative="1" as="geometry">
            <mxPoint x="180" y="250" as="sourcePoint" />
            <mxPoint x="230" y="520" as="targetPoint" />
            <Array as="points">
              <mxPoint x="220" y="260" />
              <mxPoint x="220" y="510" />
            </Array>
          </mxGeometry>
        </mxCell>
        <mxCell id="EW6i_yYcTUOvPH3DIX61-40" value="Redirect to API gateway" style="text;html=1;align=center;verticalAlign=middle;resizable=0;points=[];autosize=1;strokeColor=none;fillColor=none;rotation=90;" parent="1" vertex="1">
          <mxGeometry x="160" y="390" width="150" height="30" as="geometry" />
        </mxCell>
        <mxCell id="EW6i_yYcTUOvPH3DIX61-41" value="POST" style="text;html=1;align=center;verticalAlign=middle;resizable=0;points=[];autosize=1;strokeColor=none;fillColor=none;" parent="1" vertex="1">
          <mxGeometry x="425" y="433.5" width="60" height="30" as="geometry" />
        </mxCell>
        <mxCell id="EW6i_yYcTUOvPH3DIX61-42" value="GET" style="text;html=1;align=center;verticalAlign=middle;resizable=0;points=[];autosize=1;strokeColor=none;fillColor=none;" parent="1" vertex="1">
          <mxGeometry x="435" y="488" width="50" height="30" as="geometry" />
        </mxCell>
        <mxCell id="EW6i_yYcTUOvPH3DIX61-43" value="GET" style="text;html=1;align=center;verticalAlign=middle;resizable=0;points=[];autosize=1;strokeColor=none;fillColor=none;" parent="1" vertex="1">
          <mxGeometry x="450" y="543.5" width="50" height="30" as="geometry" />
        </mxCell>
        <mxCell id="ZqENke0EwZdCr-gSIUXj-1" value="Apply" style="text;html=1;align=center;verticalAlign=middle;resizable=0;points=[];autosize=1;strokeColor=none;fillColor=none;" vertex="1" parent="1">
          <mxGeometry x="515" y="370" width="50" height="30" as="geometry" />
        </mxCell>
        <mxCell id="ZqENke0EwZdCr-gSIUXj-2" value="Count" style="text;html=1;align=center;verticalAlign=middle;resizable=0;points=[];autosize=1;strokeColor=none;fillColor=none;" vertex="1" parent="1">
          <mxGeometry x="510" y="463.5" width="60" height="30" as="geometry" />
        </mxCell>
        <mxCell id="ZqENke0EwZdCr-gSIUXj-3" value="Draw" style="text;html=1;align=center;verticalAlign=middle;resizable=0;points=[];autosize=1;strokeColor=none;fillColor=none;" vertex="1" parent="1">
          <mxGeometry x="516" y="573.5" width="50" height="30" as="geometry" />
        </mxCell>
      </root>
    </mxGraphModel>
  </diagram>
</mxfile>
